<svg width="75" height="23" viewBox="0 0 75 23" fill="none" xmlns="http://www.w3.org/2000/svg">
<g clip-path="url(#clip0)">
<path d="M32.7932 3.45709C32.8176 4.30414 31.7427 4.74185 30.1629 4.41357C30.1425 4.45815 30.1018 4.50273 30.1018 4.55137C30.1059 6.21304 30.1059 7.87471 30.1344 9.53639C30.1385 9.85251 30.2036 10.1808 30.3095 10.4767C30.6067 11.3075 31.1034 11.4493 31.9911 10.8495C31.8119 11.2467 31.7508 11.5466 31.5758 11.7533C30.8754 12.5922 29.9104 12.649 28.921 12.5274C27.9968 12.4139 27.3901 11.8465 27.1376 10.9914C26.9666 10.4199 26.9015 9.80388 26.8974 9.20811C26.873 6.71559 26.8852 4.22308 26.8893 1.73057C26.8893 1.08617 26.9015 0.445815 26.0587 0H30.8021C29.6132 0.875419 30.2932 2.05885 30.1018 2.94643C30.6963 3.07612 31.2134 3.19771 31.7305 3.29903C32.0603 3.36388 32.3982 3.40035 32.7932 3.45709Z" fill="white"/>
<path d="M37.7932 20.39C37.8013 19.2025 37.8135 18.0109 37.785 16.8234C37.7769 16.4384 37.6751 16.0453 37.557 15.6724C37.4186 15.2388 37.0521 15.0767 36.6205 15.0726C36.1564 15.0645 35.7899 15.2834 35.6433 15.713C35.513 16.098 35.4316 16.5195 35.4235 16.9248C35.395 18.1325 35.4112 19.3403 35.4153 20.548C35.4153 21.1843 35.3705 21.8409 36.0464 22.2826H31.3966C31.8526 22.0314 32.0562 21.7193 32.1417 21.3829C32.2435 20.9857 32.1865 20.5521 32.1946 20.1387C32.2068 19.0039 32.1987 17.8731 32.1946 16.7383C32.1946 16.4952 32.1865 16.2439 32.1376 16.0048C32.0033 15.3725 31.6572 15.0645 31.1116 15.0645C30.737 15.0645 30.399 15.2428 30.1954 15.5589C30.1873 15.5711 30.1792 15.5833 30.171 15.5954C30.1059 15.7048 30.0529 15.8305 30.0204 15.9683C29.9389 16.3128 29.9145 16.6775 29.9104 17.0342C29.8982 18.7688 29.9064 20.5034 29.9064 22.2867H26.0831C26.3518 22.1043 26.5106 21.8895 26.6002 21.6545C26.6042 21.6504 26.6042 21.6463 26.6083 21.6382C26.7549 21.2532 26.7264 20.8196 26.7223 20.3981C26.7182 18.5662 26.7305 16.7343 26.7142 14.9064C26.7142 14.797 26.706 14.6835 26.6897 14.57C26.6897 14.566 26.6897 14.5579 26.6897 14.5538C26.6653 14.3431 26.6124 14.1364 26.5269 13.95C26.5228 13.9419 26.5187 13.9337 26.5147 13.9216C26.4821 13.8527 26.4414 13.7919 26.4007 13.7433C26.4007 13.7392 26.3966 13.7392 26.3966 13.7392C26.307 13.6257 26.1971 13.5163 26.0546 13.419H29.8941V14.2985C30.6718 13.3907 31.6205 12.9773 32.7524 12.9367C33.9658 12.8922 34.8331 13.3988 35.2769 14.6268C35.9853 13.4515 37.0155 12.9854 38.2614 12.9408C39.6865 12.8881 40.6108 13.6014 40.9121 14.9875C40.9894 15.336 41.0138 15.6967 41.0179 16.0534C41.0301 17.6219 41.0138 19.1863 41.0301 20.7547C41.0342 21.1235 41.1156 21.4923 41.1564 21.8004C41.3844 21.9625 41.535 22.0678 41.816 22.2664H36.9707C37.9194 21.8044 37.7891 21.0708 37.7932 20.39Z" fill="white"/>
<path d="M50.5578 22.2988H46.7549C47.4593 21.8611 47.3982 21.1803 47.3982 20.5237C47.3982 18.6756 47.39 16.8275 47.4023 14.9753C47.4063 14.3674 47.3412 13.8081 46.7508 13.4028H50.5415V14.3309C50.8102 14.0918 51.0464 13.8648 51.307 13.6622C52.2435 12.9286 53.3265 12.8232 54.4381 13.0705C55.3827 13.2772 56.0383 14.258 56.0545 15.4211C56.079 17.2328 56.0668 19.0444 56.0668 20.856C56.0668 21.4072 56.1604 21.9098 56.7101 22.2705H52.2353C52.8949 21.8733 52.8827 21.2451 52.8827 20.6169C52.8786 19.2957 52.8868 17.9744 52.8786 16.6532C52.8705 15.6359 52.4878 15.0766 51.8078 15.0645C51.1238 15.0523 50.5904 15.6765 50.5782 16.6289C50.5497 18.4202 50.5659 20.2116 50.5659 22.007C50.5578 22.0962 50.5578 22.1854 50.5578 22.2988Z" fill="white"/>
<path d="M46.132 12.3977H42.329C43.0334 11.96 42.9723 11.2791 42.9723 10.6226C42.9723 8.77446 42.9642 6.92635 42.9764 5.07419C42.9805 4.46626 42.9153 3.90697 42.325 3.50168H46.1157V4.42979C46.3844 4.19067 46.6206 3.96371 46.8811 3.76107C47.8176 3.0275 48.9007 2.92212 50.0122 3.16935C50.9569 3.37604 51.6124 4.35684 51.6287 5.52001C51.6531 7.33164 51.6409 9.14327 51.6409 10.9549C51.6409 11.5061 51.7346 12.0086 52.2842 12.3693H47.8095C48.4691 11.9722 48.4569 11.344 48.4569 10.7158C48.4528 9.39455 48.4609 8.07331 48.4528 6.75208C48.4447 5.73481 48.0619 5.17552 47.382 5.16336C46.6979 5.1512 46.1645 5.77534 46.1523 6.72776C46.1238 8.51913 46.1401 10.3105 46.1401 12.1059C46.132 12.1951 46.132 12.2842 46.132 12.3977Z" fill="white"/>
<path d="M40.8673 10.2983C40.6759 11.1291 40.1955 11.5628 39.6295 11.9195C37.7403 13.1029 35.0611 12.653 33.6564 10.9265C31.6124 8.41778 32.8258 4.02853 35.8225 3.08827C38.2207 2.33443 40.7696 3.68809 41.2012 5.97391C41.4211 7.12492 41.0627 8.12598 40.1548 8.85955C39.3364 9.52016 38.3836 9.57285 37.4186 9.16351C36.9422 8.96087 36.6043 8.62853 36.5554 7.99223C37.1051 8.24351 37.6914 8.3043 38.0375 7.85038C38.3592 7.42483 38.6279 6.85743 38.6482 6.34272C38.6727 5.75505 38.4935 5.10659 38.2329 4.56756C37.9031 3.89479 37.2395 3.90289 36.759 4.4784C35.6515 5.81179 35.5619 8.87576 36.5961 10.274C37.439 11.4169 39.1246 11.6155 40.3583 10.7158C40.4927 10.6144 40.6189 10.501 40.8673 10.2983Z" fill="white"/>
<path d="M60.9324 10.2983C60.7411 11.1291 60.2606 11.5628 59.6946 11.9195C57.8054 13.1029 55.1262 12.653 53.7215 10.9265C51.6775 8.41778 52.8909 4.02853 55.8876 3.08827C58.2858 2.33443 60.8347 3.68809 61.2663 5.97391C61.4862 7.12492 61.1279 8.12598 60.2199 8.85955C59.4015 9.52016 58.4487 9.57285 57.4837 9.16351C57.0073 8.96087 56.6694 8.62853 56.6205 7.99223C57.1702 8.24351 57.7565 8.3043 58.1026 7.85038C58.4243 7.42483 58.693 6.85743 58.7134 6.34272C58.7378 5.75505 58.5586 5.10659 58.2981 4.56756C57.9683 3.89479 57.3046 3.90289 56.8241 4.4784C55.7166 5.81179 55.6271 8.87576 56.6613 10.274C57.5041 11.4169 59.1898 11.6155 60.4235 10.7158C60.5578 10.6144 60.6841 10.501 60.9324 10.2983Z" fill="white"/>
<path d="M45.9691 13.4393V22.2989H42.158C42.4267 22.1165 42.5855 21.9017 42.6751 21.6666C42.6792 21.6626 42.6792 21.6585 42.6833 21.6504C42.8258 21.2654 42.8013 20.8317 42.7973 20.4102C42.7932 18.9147 42.8013 17.4192 42.7932 15.9237C44.1613 15.5549 45.3013 14.6471 45.9691 13.4393Z" fill="white"/>
<path d="M44.3201 14.1891C43.0578 14.1891 42.0277 13.1637 42.0277 11.9073C42.0277 10.6509 43.0538 9.62555 44.3201 9.62555C45.5823 9.62555 46.6124 10.6509 46.6124 11.9073C46.6124 13.1637 45.5863 14.1891 44.3201 14.1891Z" fill="#03585A"/>
<path d="M46.1034 11.9073C46.1034 12.8881 45.3053 13.6825 44.32 13.6825C43.3347 13.6825 42.5366 12.8881 42.5366 11.9073C42.5366 10.9265 43.3347 10.1321 44.32 10.1321C45.3053 10.1321 46.1034 10.9265 46.1034 11.9073Z" fill="white"/>
<path d="M61.8119 12.3977C61.8404 12.3856 61.8648 12.3774 61.8892 12.3612C62.4674 12.0532 62.4755 11.04 62.4592 10.6509V5.60512C62.5081 5.0904 62.5285 4.08529 61.8974 3.57463C61.8689 3.55031 61.8363 3.526 61.8037 3.50573H65.5944C65.5944 4.20688 65.5985 4.90397 65.5985 5.60512H65.7736C66.2418 3.63542 67.4307 2.28177 68.7418 2.28177C69.3607 2.28177 69.7801 2.82485 69.7801 3.88265C69.7801 4.49868 69.4584 5.26062 69.1612 5.45921H68.9617C68.64 5.28494 68.3184 5.21199 67.9967 5.21199C66.934 5.21199 66.1156 5.85234 65.5985 7.13305V10.655C65.5822 11.0481 65.6066 11.8668 66.1604 12.3167C66.197 12.345 66.2337 12.3734 66.2744 12.3977H61.8119Z" fill="white"/>
<path d="M68.2003 22.2421C67.443 21.8855 67.0806 21.4316 67.0806 20.8844C67.0806 20.2887 67.4959 19.7861 68.3225 19.3808H68.5668C69.0554 20.7872 70.0774 21.8368 71.3681 21.8368C72.0766 21.8368 72.5122 21.4316 72.5122 20.7872C72.5122 20.4305 72.3901 20.1184 72.1213 19.8591C71.6083 19.2876 71.2215 19.166 70.1222 18.6918C68.3917 17.9542 67.3209 17.1436 67.3209 15.6157C67.3209 13.7798 68.978 12.5396 71.3925 12.5396C72.2924 12.5396 73.0985 12.7057 73.8314 13.0178C74.5643 13.3258 74.9267 13.7554 74.9267 14.258C74.9267 14.7119 74.5603 15.1658 73.807 15.5711H73.5627C73.0008 14.4282 71.9544 13.4474 70.8591 13.4474C70.1995 13.4474 69.7883 13.8041 69.7883 14.3755C69.7883 14.6835 69.886 14.947 70.1059 15.1861C70.5212 15.6643 70.9365 15.8548 71.8852 16.2358C72.8583 16.6411 73.2492 16.8316 73.9577 17.3787C74.6661 17.8813 75.0041 18.5702 75.0041 19.5024C75.0041 21.4113 73.2736 22.7447 70.7614 22.7447C69.8086 22.7447 68.9536 22.5785 68.2003 22.2421Z" fill="white"/>
<path d="M65.3339 23C65.1588 23 64.9756 22.9919 64.776 22.9716H60.1221L60.2932 22.8663C60.2809 22.8663 60.2646 22.8663 60.2484 22.8663L60.1466 22.8622C60.1059 22.8581 60.0651 22.8581 60.0285 22.8541C59.9145 22.8419 59.8005 22.8217 59.6824 22.7974C59.5765 22.773 59.487 22.7487 59.4055 22.7204L59.3892 22.7163C59.373 22.7122 59.3567 22.7041 59.3404 22.7001L59.3159 22.692C59.2874 22.6798 59.259 22.6717 59.2264 22.6596H59.2182L59.1531 22.6352L59.149 22.6312C59.1409 22.6271 59.0879 22.6028 59.0879 22.6028L58.9821 22.5501C58.807 22.465 58.636 22.3637 58.4772 22.2462L58.3673 22.1651C58.3428 22.1489 58.3143 22.1246 58.2817 22.1003C58.241 22.0678 58.1962 22.0314 58.1515 21.9908L58.1352 21.9746L58.0497 21.8976L57.9723 21.8247L57.9031 21.7558C57.8624 21.7152 57.8339 21.6869 57.8013 21.6544L57.7076 21.5531L57.614 21.4478L57.6059 21.4396C57.5936 21.4275 57.5814 21.4113 57.5692 21.3991C57.5529 21.3789 57.5326 21.3586 57.5163 21.3343C57.4756 21.2856 57.4308 21.2289 57.3901 21.1762L57.3575 21.1357C57.3208 21.087 57.2842 21.0344 57.2476 20.9857C57.1702 20.8763 57.0969 20.7588 57.0195 20.6331L57.0155 20.6291L56.9951 20.5926C56.9666 20.5399 56.9422 20.4953 56.9177 20.4507C56.877 20.3778 56.8404 20.3048 56.8037 20.2278C56.7549 20.1225 56.706 20.0171 56.6612 19.9117L56.592 19.8347V19.7334C56.5839 19.7172 56.5798 19.6969 56.5717 19.6807C56.5432 19.5996 56.5106 19.5105 56.4861 19.4254L56.478 19.4011C56.4658 19.3565 56.4495 19.3119 56.4373 19.2673C56.4251 19.2268 56.4129 19.1863 56.4047 19.1417L56.3721 19.016C56.3559 18.9552 56.3436 18.8985 56.3355 18.8458C56.3274 18.8093 56.3192 18.7729 56.3151 18.7364C56.3111 18.7121 56.307 18.6878 56.3029 18.6634L56.2989 18.6391C56.2907 18.6026 56.2866 18.5702 56.2826 18.5337C56.2703 18.4486 56.2541 18.3554 56.2459 18.2622C56.2418 18.2176 56.2337 18.169 56.2296 18.1163C56.2256 18.0677 56.2215 18.0231 56.2174 17.9744C56.2133 17.9258 56.2093 17.8772 56.2093 17.8285L56.2052 17.6664C56.2052 17.5692 56.2052 17.48 56.2052 17.3868C56.2093 17.2774 56.2133 17.176 56.2215 17.0788C56.2256 17.0301 56.2296 16.9815 56.2337 16.9288C56.2418 16.8356 56.2541 16.7424 56.2663 16.6492C56.2785 16.5762 56.2866 16.5033 56.2989 16.4344C56.307 16.3898 56.3151 16.3452 56.3233 16.2966L56.3274 16.2844C56.3355 16.2479 56.3396 16.2115 56.3477 16.175C56.3559 16.1263 56.3681 16.0818 56.3803 16.0331C56.3884 15.9967 56.3966 15.9602 56.4088 15.9237C56.4129 15.9034 56.421 15.871 56.4291 15.8426L56.4332 15.8224C56.4414 15.79 56.4495 15.7616 56.4576 15.7373C56.4861 15.6441 56.5147 15.5508 56.5472 15.4576C56.5757 15.3725 56.6042 15.2915 56.6368 15.2144L57.1173 15.3806L56.6409 15.2023C56.6449 15.1901 56.649 15.178 56.6572 15.1658C56.6694 15.1334 56.6816 15.101 56.6979 15.0685L56.706 15.0483L56.7101 15.0402C56.7101 15.0402 56.7264 15.0037 56.7304 14.9996V14.9915L56.7875 14.8781C56.8037 14.8456 56.8241 14.8011 56.8485 14.7565C56.8526 14.7524 56.8526 14.7443 56.8567 14.7403V14.6673L56.9503 14.5619L56.987 14.4971C57.0399 14.3998 57.0969 14.3107 57.1458 14.2337C57.1702 14.1931 57.2028 14.1485 57.2313 14.104C57.2557 14.0675 57.2842 14.027 57.3168 13.9824C57.3412 13.9459 57.3656 13.9135 57.3941 13.877L57.4104 13.8527C57.4796 13.7635 57.5407 13.6865 57.6018 13.6136C57.6303 13.5811 57.6629 13.5406 57.6995 13.5041C57.7728 13.4231 57.842 13.3501 57.9072 13.2853C57.9153 13.2772 57.9275 13.265 57.9357 13.2569C57.9642 13.2285 57.9927 13.2002 58.0212 13.1759C58.7133 12.5274 59.5155 12.1667 60.4072 12.0937C60.4845 12.0856 60.5578 12.0856 60.6311 12.0856C60.6677 12.0856 60.7003 12.0856 60.737 12.0897H60.7492C60.7817 12.0897 60.8103 12.0937 60.8347 12.0937C60.9039 12.0978 60.969 12.1059 61.0342 12.1181C61.0627 12.1221 61.0912 12.1262 61.1156 12.1302C61.1482 12.1383 61.1767 12.1424 61.2093 12.1505C61.3274 12.1789 61.4414 12.2153 61.5513 12.2599C61.5798 12.2721 61.6124 12.2842 61.6409 12.2964C61.7019 12.3248 61.7549 12.3531 61.7997 12.3774C61.8485 12.4018 61.9055 12.4382 61.9544 12.4707C61.9544 12.4707 62.0236 12.5193 62.0318 12.5274C61.9137 12.5112 61.6124 12.4544 61.4699 12.2275C61.2663 11.8992 61.4454 11.2953 62.0318 10.9063C62.0155 10.8576 61.9992 10.809 61.9707 10.7563C61.9015 10.6307 61.7752 10.4969 61.535 10.3713L61.7752 9.41885H68.0659L66.8241 10.3307C66.3925 10.6469 66.307 10.9914 66.307 11.4129L66.2989 19.2349C66.2989 19.8428 66.2948 20.4507 66.2948 21.0587C66.2948 21.5369 66.3803 21.7882 66.6124 21.9787C66.6409 22.003 66.6734 22.0273 66.7101 22.0516L68.1107 22.9797H65.8469C65.8143 22.9838 65.7858 22.9878 65.7532 22.9878C65.6067 22.9959 65.4723 23 65.3339 23ZM60.9772 19.9522C61.0871 20.086 61.1848 20.163 61.2785 20.1914C61.307 20.1995 61.3396 20.2035 61.3803 20.2035C61.4006 20.2035 61.4251 20.2035 61.4495 20.1995C61.4861 20.1954 61.5146 20.1914 61.5391 20.1833C61.5513 20.1792 61.5635 20.1752 61.5757 20.1711C61.5798 20.1711 61.6124 20.1549 61.6124 20.1549C61.6246 20.1468 61.6409 20.1427 61.6531 20.1346L61.6694 20.1225L61.7019 20.0981C61.7223 20.0819 61.7467 20.0576 61.763 20.0333L61.7752 20.0171C61.7793 20.013 61.7834 20.009 61.7874 20.0049L61.7997 19.9847C61.8078 19.9766 61.8119 19.9644 61.82 19.9563L61.8322 19.936C61.8404 19.9279 61.8444 19.9158 61.8485 19.9077C61.8567 19.8874 61.8648 19.8752 61.8689 19.8631L61.877 19.8469C61.9015 19.7942 61.9177 19.7374 61.93 19.6929C61.9381 19.6685 61.9422 19.6483 61.9462 19.628L61.9585 19.5875C61.9625 19.5753 61.9625 19.5632 61.9707 19.5429C62.0399 19.2592 62.0969 18.9512 62.1335 18.6351C62.2109 18.015 62.2231 17.3665 62.1743 16.7586C62.1417 16.3452 62.0765 15.9561 61.987 15.6359L61.9747 15.5995C61.9381 15.4698 61.8852 15.3279 61.7915 15.2307L61.7712 15.2104L61.7386 15.182C61.7345 15.178 61.7101 15.1618 61.7101 15.1618L61.6938 15.1537C61.6816 15.1455 61.6653 15.1374 61.649 15.1293C61.6246 15.1172 61.6002 15.105 61.5757 15.101L61.5554 15.0969C61.5228 15.0848 61.4861 15.0767 61.4495 15.0726C61.4169 15.0685 61.3844 15.0645 61.3559 15.0645C61.25 15.0645 61.1075 15.0888 60.9243 15.2752C60.8713 15.332 60.8184 15.3928 60.7655 15.4698L60.7573 15.4819L60.7451 15.4941C60.737 15.5022 60.7329 15.5144 60.7247 15.5225C60.5945 15.717 60.4886 15.9399 60.4031 16.1871C60.3705 16.2763 60.3461 16.3614 60.3257 16.4384C60.3013 16.5276 60.2809 16.6167 60.2646 16.7059C60.2076 17.018 60.1832 17.3463 60.1914 17.6826C60.1914 17.7272 60.1954 17.7718 60.1954 17.8164C60.1995 17.8691 60.2036 17.9137 60.2076 17.9542C60.2117 17.9907 60.2158 18.0271 60.2158 18.0596C60.2199 18.0879 60.2199 18.1041 60.2239 18.1204L60.2443 18.2541C60.2484 18.2865 60.2565 18.323 60.2646 18.3635C60.2728 18.4122 60.2809 18.4486 60.2891 18.4811L60.2932 18.5013C60.3013 18.5419 60.3135 18.5864 60.3216 18.631C60.3257 18.6432 60.3257 18.6553 60.3298 18.6675H60.4601V19.0849C60.5252 19.2592 60.6026 19.4173 60.6881 19.5632L60.6962 19.5753C60.7085 19.5956 60.7207 19.6118 60.7329 19.6321C60.7532 19.6645 60.7655 19.6848 60.7817 19.7091L60.798 19.7334C60.798 19.7334 60.8428 19.7942 60.851 19.8063L60.969 19.9239L60.9772 19.9522Z" fill="#035759"/>
<path d="M65.7655 21.0506C65.7655 20.4426 65.7655 19.8347 65.7695 19.2268C65.7695 17.4233 65.7736 15.6197 65.7736 13.8162C65.7736 13.5487 65.7736 13.2812 65.7736 13.0137C65.7736 12.4788 65.7736 11.9438 65.7736 11.4088C65.7736 10.886 65.8958 10.3632 66.4984 9.91736H61.7508C62.2272 10.1686 62.4308 10.4848 62.5204 10.8293V13.0137C62.5163 13.0745 62.5122 13.1394 62.5081 13.2002C62.4959 13.3988 62.4837 13.5974 62.4715 13.7959C62.3534 13.6136 62.2313 13.4433 62.101 13.2934C62.0888 13.2772 62.0765 13.265 62.0603 13.2488C62.044 13.2326 62.0277 13.2123 62.0114 13.1961C61.9951 13.1799 61.9788 13.1637 61.9625 13.1434C61.9462 13.1272 61.93 13.111 61.9096 13.0948C61.877 13.0624 61.8404 13.03 61.8037 13.0016C61.7874 12.9894 61.7671 12.9732 61.7508 12.9611C61.7345 12.9448 61.7142 12.9327 61.6938 12.9205C61.6775 12.9084 61.6572 12.8962 61.6368 12.88C61.6002 12.8557 61.5594 12.8314 61.5187 12.807C61.478 12.7827 61.4373 12.7625 61.3966 12.7463C61.3762 12.7382 61.3559 12.726 61.3355 12.7179C61.25 12.6814 61.1604 12.653 61.0668 12.6328C61.0423 12.6287 61.022 12.6206 60.9975 12.6166C60.9731 12.6125 60.9487 12.6085 60.9243 12.6044C60.8754 12.5963 60.8265 12.5882 60.7736 12.5882C60.7492 12.5841 60.7207 12.5841 60.6963 12.5841C60.6067 12.5801 60.5171 12.5801 60.4234 12.5882C59.605 12.653 58.9251 12.9935 58.3469 13.5325C58.3225 13.5568 58.298 13.5771 58.2736 13.6014C58.2655 13.6095 58.2533 13.6176 58.2451 13.6298C58.18 13.6946 58.1148 13.7635 58.0537 13.8324C58.0212 13.8648 57.9927 13.9013 57.9642 13.9378C57.9031 14.0067 57.8461 14.0756 57.7932 14.1485C57.7891 14.1526 57.7891 14.1526 57.785 14.1567C57.7606 14.1931 57.7321 14.2256 57.7076 14.262C57.6791 14.2985 57.6547 14.335 57.6303 14.3755C57.6059 14.416 57.5774 14.4525 57.557 14.493C57.5081 14.57 57.4593 14.6511 57.4145 14.7281C57.3941 14.7686 57.3697 14.8051 57.3493 14.8456L57.3453 14.8497C57.3249 14.8902 57.3046 14.9307 57.2842 14.9713C57.2638 15.0118 57.2435 15.0523 57.2231 15.0929C57.2231 15.0969 57.219 15.0969 57.219 15.101C57.2028 15.1334 57.1865 15.1699 57.1743 15.2023C57.1702 15.2104 57.1702 15.2145 57.1661 15.2226C57.1498 15.2671 57.1295 15.3077 57.1132 15.3522C57.1091 15.3644 57.105 15.3766 57.0969 15.3928C57.0684 15.4657 57.0399 15.5387 57.0155 15.6116C56.987 15.7008 56.9585 15.7859 56.93 15.8751C56.9218 15.8994 56.9177 15.9196 56.9096 15.948C56.9015 15.9764 56.8933 16.0088 56.8852 16.0372C56.877 16.0737 56.8689 16.1061 56.8607 16.1426C56.8485 16.1871 56.8404 16.2317 56.8282 16.2804C56.82 16.3128 56.816 16.3411 56.8078 16.3736C56.7997 16.4182 56.7915 16.4668 56.7834 16.5114C56.7712 16.5762 56.763 16.6411 56.7508 16.7059C56.7386 16.7951 56.7304 16.8802 56.7223 16.9693C56.7182 17.0139 56.7142 17.0626 56.7101 17.1071C56.7019 17.1963 56.6979 17.2895 56.6979 17.3787V17.3827C56.6979 17.4678 56.6979 17.557 56.6979 17.6381C56.6979 17.6786 56.7019 17.7191 56.7019 17.7556C56.7019 17.7678 56.7019 17.7799 56.7019 17.788C56.706 17.8326 56.706 17.8772 56.7101 17.9218C56.7142 17.9663 56.7182 18.0109 56.7223 18.0555C56.7264 18.1001 56.7304 18.1447 56.7345 18.1893C56.7427 18.2744 56.7549 18.3554 56.7671 18.4405C56.7712 18.473 56.7752 18.5013 56.7834 18.5297C56.7875 18.5621 56.7956 18.5905 56.7997 18.6189C56.8037 18.6513 56.8119 18.6878 56.82 18.7202C56.8282 18.7729 56.8404 18.8215 56.8526 18.8742C56.8607 18.9107 56.8689 18.9471 56.8811 18.9836C56.8933 19.0282 56.9055 19.0687 56.9177 19.1133C56.93 19.1579 56.9422 19.2025 56.9544 19.243C56.9544 19.247 56.9585 19.2511 56.9585 19.2552C56.9829 19.3362 57.0114 19.4173 57.0399 19.4983C57.0562 19.5389 57.0725 19.5834 57.0888 19.624C57.1376 19.7456 57.1905 19.8712 57.2476 19.9887C57.2801 20.0576 57.3168 20.1265 57.3534 20.1914C57.3778 20.2359 57.4023 20.2805 57.4267 20.3251C57.4308 20.3292 57.4348 20.3373 57.4389 20.3413C57.5081 20.4589 57.5774 20.5683 57.6547 20.6777C57.6873 20.7223 57.7199 20.7709 57.7524 20.8155C57.7606 20.8277 57.7687 20.8358 57.7769 20.8479C57.8176 20.9006 57.8583 20.9493 57.899 20.9979C57.9275 21.0344 57.9601 21.0668 57.9886 21.1033C58.0171 21.1357 58.0415 21.1641 58.07 21.1924L58.1515 21.2816C58.184 21.314 58.2125 21.3424 58.241 21.3748C58.2655 21.3991 58.2858 21.4194 58.3103 21.4437C58.3347 21.464 58.355 21.4883 58.3795 21.5085C58.4039 21.5288 58.4243 21.5491 58.4446 21.5693C58.4528 21.5774 58.4609 21.5815 58.465 21.5896C58.5057 21.6261 58.5505 21.6585 58.5912 21.6909C58.6156 21.7112 58.6401 21.7315 58.6645 21.7477C58.6889 21.7639 58.7133 21.7841 58.7378 21.8004C58.7459 21.8044 58.7541 21.8125 58.7622 21.8166C58.9047 21.9179 59.0472 22.003 59.1938 22.0759C59.2264 22.0922 59.2549 22.1043 59.2875 22.1205C59.316 22.1327 59.3404 22.1448 59.3689 22.157C59.373 22.157 59.377 22.1611 59.3811 22.1611C59.4137 22.1732 59.4422 22.1854 59.4748 22.1975C59.4992 22.2056 59.5277 22.2137 59.5521 22.2219C59.6295 22.2462 59.7028 22.2664 59.7801 22.2867C59.8778 22.307 59.9756 22.3232 60.0692 22.3353C60.1018 22.3394 60.1344 22.3394 60.1669 22.3434L60.2443 22.3475C60.3705 22.3515 60.4967 22.3434 60.627 22.3313C60.6881 22.3232 60.7451 22.3151 60.8021 22.3029C60.8143 22.2989 60.8265 22.2989 60.8428 22.2948C60.8632 22.2907 60.8795 22.2867 60.8998 22.2826C60.9283 22.2786 60.9568 22.2705 60.9853 22.2624C60.9975 22.2583 61.0057 22.2583 61.0179 22.2543C61.0423 22.2462 61.0708 22.2381 61.0953 22.23C61.1116 22.2259 61.1278 22.2219 61.1482 22.2137C61.2418 22.1813 61.3355 22.1489 61.4251 22.1043C61.4576 22.0881 61.4943 22.0719 61.5309 22.0557C61.5635 22.0395 61.6002 22.0192 61.6368 22.003C61.6694 21.9868 61.706 21.9665 61.7427 21.9463L61.8485 21.8855C61.877 21.8693 61.9096 21.849 61.9381 21.8287C61.9666 21.8125 61.9992 21.7922 62.0277 21.772C62.0847 21.7355 62.1376 21.695 62.1946 21.6544C62.1987 21.6504 62.2068 21.6463 62.215 21.6382C62.2679 21.5977 62.3249 21.5531 62.3819 21.5085C62.4104 21.4842 62.443 21.4599 62.4715 21.4356C62.5 21.4113 62.5326 21.3829 62.5611 21.3586C62.5611 21.3626 62.5611 21.3667 62.5611 21.3707C62.5244 21.7922 62.386 22.1773 61.93 22.4529H64.7964C65.0977 22.4812 65.3949 22.4934 65.68 22.465C65.7166 22.461 65.7533 22.4569 65.7899 22.4529H66.4047C66.3518 22.4204 66.307 22.384 66.2622 22.3475C65.8428 22.0111 65.7655 21.5491 65.7655 21.0506ZM62.6344 18.6918C62.5936 19.0282 62.5326 19.3605 62.4552 19.6726C62.4511 19.6767 62.4511 19.6848 62.4511 19.6888C62.4471 19.705 62.443 19.7212 62.4389 19.7374C62.4308 19.7699 62.4226 19.7982 62.4145 19.8307C62.3941 19.8996 62.3697 19.9725 62.3371 20.0455C62.3249 20.0698 62.3127 20.0982 62.3005 20.1225C62.2883 20.1468 62.276 20.1752 62.2557 20.2035C62.2394 20.2278 62.2231 20.2562 62.2068 20.2765C62.1905 20.3008 62.1743 20.3211 62.158 20.3413C62.1173 20.394 62.0684 20.4426 62.0155 20.4872C62.0032 20.4994 61.991 20.5115 61.9748 20.5196C61.9625 20.5278 61.9544 20.5359 61.9422 20.544C61.9381 20.548 61.934 20.5521 61.9259 20.5521C61.8933 20.5723 61.8607 20.5926 61.8241 20.6088C61.8119 20.6129 61.7997 20.621 61.7875 20.625C61.7712 20.6331 61.7508 20.6412 61.7345 20.6453C61.7182 20.6493 61.702 20.6534 61.6816 20.6615C61.6287 20.6777 61.5676 20.6899 61.5065 20.698C61.364 20.7142 61.2378 20.7061 61.1278 20.6737C60.8958 20.6048 60.7207 20.4426 60.566 20.2522C60.5334 20.2116 60.5008 20.167 60.4682 20.1225C60.4682 20.1225 60.4682 20.1225 60.4682 20.1184C60.4357 20.0738 60.4072 20.0293 60.3746 19.9847C60.3542 19.9522 60.3339 19.9239 60.3135 19.8915C60.2932 19.8631 60.2769 19.8307 60.2606 19.8023C60.1425 19.6037 60.0448 19.3889 59.9634 19.1619C59.9308 19.0728 59.9023 18.9796 59.8778 18.8863C59.8656 18.8377 59.8534 18.7891 59.8371 18.7364C59.8249 18.6878 59.8127 18.6391 59.8046 18.5905C59.7923 18.5419 59.7842 18.4932 59.7761 18.4405C59.7679 18.3959 59.7598 18.3514 59.7516 18.3068C59.7476 18.2622 59.7394 18.2217 59.7353 18.1771C59.7313 18.1528 59.7313 18.1285 59.7272 18.1041C59.7231 18.0636 59.7191 18.0271 59.715 17.9866C59.7109 17.938 59.7068 17.8853 59.7028 17.8367C59.6987 17.784 59.6987 17.7353 59.6946 17.6826C59.6824 17.3138 59.7109 16.9491 59.7761 16.5965C59.7964 16.4952 59.8168 16.3979 59.8412 16.3006C59.8656 16.2033 59.8941 16.1061 59.9267 16.0129C60.0203 15.7292 60.1466 15.4657 60.3013 15.2347C60.3176 15.2104 60.3339 15.1901 60.3502 15.1658C60.4153 15.0726 60.4845 14.9875 60.5619 14.9064C60.8062 14.6552 61.1116 14.493 61.5228 14.5498C61.5879 14.5579 61.6531 14.5741 61.7142 14.5944C61.7752 14.6106 61.8322 14.6349 61.8852 14.6633C61.9096 14.6754 61.9381 14.6916 61.9625 14.7078C61.9829 14.72 62.0033 14.7322 62.0236 14.7484C62.0277 14.7524 62.0318 14.7524 62.0318 14.7565C62.0562 14.7727 62.0765 14.7889 62.0969 14.8092C62.101 14.8092 62.101 14.8132 62.101 14.8132C62.1173 14.8254 62.1295 14.8375 62.1417 14.8537C62.1498 14.8578 62.1539 14.8659 62.158 14.874C62.3331 15.0645 62.4145 15.2996 62.4674 15.4779C62.4674 15.4819 62.4715 15.486 62.4715 15.49V15.4941C62.5692 15.8467 62.6384 16.2601 62.6751 16.71C62.7321 17.3341 62.7199 18.0231 62.6344 18.6918Z" fill="white"/>
<path d="M23.3958 7.77744C23.3958 12.4463 21.592 14.3228 17.6995 17.6988C17.5489 17.5165 17.3656 17.326 17.1091 17.1558C16.9381 17.0423 16.7549 16.945 16.5513 16.868C16.25 16.7545 15.9487 16.6451 15.6515 16.5316C14.6091 16.1304 14.2671 14.8497 14.1979 13.8486C14.1572 13.2691 14.202 12.7949 14.4748 12.2761C14.7801 11.7047 15.2321 11.2102 15.3787 10.5618C15.7899 8.7096 14.3119 6.99118 12.5122 6.72369C10.5619 6.43189 8.14332 7.5059 8.22068 9.75929C8.22883 10.0227 8.21661 10.6185 8.2329 11.1211C8.23697 11.3075 8.25733 11.8992 8.33062 12.6936C8.47313 14.262 8.65635 14.3755 8.7215 14.4768C8.94137 14.8213 9.73127 14.6997 10.0651 14.6592C10.1588 14.647 10.2565 14.6187 10.342 14.6389C10.5171 14.6795 10.6718 14.7686 10.7858 14.9145C11.0912 15.3036 11.3355 15.7292 11.4699 16.2074C11.6572 16.868 11.5228 17.4638 11.0668 17.9704C10.7736 18.2946 10.4927 18.6229 10.3013 19.016C10.1751 19.2835 10.0651 19.4943 10.0163 19.6321C9.943 20.0819 9.85749 20.6453 9.77606 21.2573C3.04967 15.1982 0 13.8527 0 7.77744C0 4.36493 2.62215 1.75488 6.05049 1.75488C8.47313 1.75488 10.4886 3.16123 11.6979 5.16739C12.9072 3.16123 14.9226 1.75488 17.3453 1.75488C20.7736 1.75488 23.3958 4.36493 23.3958 7.77744Z" fill="white"/>
</g>
<defs>
<clipPath id="clip0">
<rect width="75" height="23" fill="white"/>
</clipPath>
</defs>
</svg>
